<svg version="1.1" id="Layer_1" xmlns="http://www.w3.org/2000/svg" xmlns:xlink="http://www.w3.org/1999/xlink" x="0px" y="0px"
	 width="100%" viewBox="0 0 640 656" enable-background="new 0 0 640 656" xml:space="preserve">
<path fill="#dae2f8" opacity="1.000000" stroke="none" 
	d="
M212.913330,553.486328 
	C205.214233,561.565857 196.847031,568.599854 192.348206,578.835449 
	C191.035706,581.821655 190.131500,585.077759 187.334503,588.235962 
	C183.866364,581.304077 183.156143,574.278259 181.590393,567.441711 
	C178.774948,555.148804 184.505020,545.002380 189.106552,534.570435 
	C200.801743,508.056732 214.151062,482.296509 225.196671,455.480988 
	C226.295715,452.812866 226.377289,450.778290 225.111130,448.035461 
	C218.767914,434.294312 218.069687,419.666840 219.901520,404.979614 
	C222.537781,383.842651 228.725967,363.688751 238.477814,344.695435 
	C239.424149,342.852295 239.998734,340.591888 243.332779,339.565979 
	C244.364838,349.786621 245.370743,359.748199 246.376633,369.709747 
	C246.908890,347.473450 252.678619,326.460388 261.167084,306.129456 
	C269.520264,286.122498 276.035553,265.063660 291.125153,248.738770 
	C291.831207,248.963577 292.537292,249.188400 293.243378,249.413208 
	C292.826508,258.047119 292.409637,266.681030 291.931213,276.590057 
	C300.736755,240.119522 319.668823,211.341171 347.017273,187.670898 
	C345.824982,196.457153 341.380188,204.529861 342.524109,213.909012 
	C353.964569,193.910126 367.180695,175.295746 382.579803,158.307922 
	C383.051880,158.537216 383.523987,158.766495 383.996094,158.995773 
	C379.785828,169.720856 375.575562,180.445923 371.365295,191.171005 
	C371.547119,191.252594 371.728912,191.334183 371.910736,191.415771 
	C374.129395,187.560013 376.412567,183.739731 378.556274,179.842743 
	C392.826874,153.900818 415.220947,137.154984 441.239471,124.575005 
	C460.866852,115.085144 481.540100,108.875069 503.137756,105.994743 
	C512.200989,104.786041 521.361328,104.260269 530.542358,104.786507 
	C534.369080,105.005844 535.709290,106.226524 534.700500,110.453163 
	C531.010132,125.915825 523.751221,139.331390 512.846436,150.834091 
	C511.930969,151.799774 511.053223,152.803391 510.201294,153.825516 
	C510.012207,154.052383 510.006653,154.432281 509.790985,155.173218 
	C514.703552,154.844910 517.226257,150.510040 521.470337,148.679901 
	C522.077942,151.608658 520.495239,153.724258 519.595276,155.807678 
	C507.605225,183.563919 491.132507,208.215240 467.835083,227.757629 
	C456.415985,237.336166 442.525726,243.107483 429.616028,250.362854 
	C420.345154,255.573196 410.973450,260.604095 401.845825,266.150085 
	C423.876251,260.023773 444.688446,250.748230 465.385193,241.713501 
	C466.669495,243.093170 466.023315,244.010178 465.559601,244.839630 
	C454.346954,264.897003 443.787018,285.323608 430.723328,304.312897 
	C411.775696,331.855133 385.014435,347.902466 353.708008,357.453491 
	C351.801941,358.034943 349.943085,358.775848 348.082764,359.495605 
	C347.873840,359.576477 347.799530,360.005219 347.215729,361.147034 
	C370.167480,358.782990 392.039368,353.846527 414.117340,348.606171 
	C398.974365,372.927887 378.748413,391.698944 352.815308,405.039581 
	C355.710968,406.331024 357.661530,404.078064 360.088715,405.192291 
	C360.731537,409.089874 357.980164,411.851257 355.922638,414.576660 
	C341.701782,433.413483 323.782501,447.818420 302.419525,457.772675 
	C293.157104,462.088562 283.339050,464.729950 272.933350,464.281372 
	C272.600403,464.267029 272.266724,464.270935 271.933746,464.257294 
	C258.482208,463.706543 257.515747,462.192383 262.192047,449.888275 
	C293.890137,366.485809 339.256805,291.267456 397.617432,223.855148 
	C407.867706,212.015030 418.578186,200.577469 429.749695,189.583862 
	C432.686279,186.693985 435.462006,183.640656 437.552490,179.788422 
	C434.786499,181.995331 431.977448,184.150650 429.261047,186.416992 
	C393.576569,216.189026 363.355591,250.908813 336.751282,288.870361 
	C288.022369,358.401459 250.878357,433.731354 224.411987,514.347046 
	C220.212097,527.139709 216.837936,540.203613 212.913330,553.486328 
z"/>
<path fill="#dae2f8" opacity="1.000000" stroke="none" 
	d="
M263.002136,77.806419 
	C332.323364,58.517647 402.343811,73.099281 443.913086,96.525894 
	C441.722900,99.320068 438.092468,99.510925 435.534027,101.384178 
	C426.086151,108.301743 417.006042,107.013718 406.430237,102.796036 
	C386.580536,94.879852 365.556152,91.323677 344.119537,90.126701 
	C284.484161,86.796799 231.110321,103.541664 184.691345,140.869080 
	C138.988022,177.620972 110.915779,225.368484 101.349098,283.329681 
	C91.771820,341.355103 102.811417,395.560120 134.050705,445.492676 
	C145.613358,463.974304 159.725037,480.358704 176.072433,494.763184 
	C178.939423,497.289398 179.723236,499.354248 177.801788,502.802124 
	C175.320023,507.255463 173.325317,511.980255 171.267792,516.281067 
	C168.662247,516.490234 167.611313,514.999817 166.404495,513.948669 
	C119.393875,473.003235 89.079071,422.156342 80.854843,360.230621 
	C66.804588,254.436768 104.988037,170.759491 192.348053,109.705780 
	C213.672256,94.802841 237.556732,84.907227 263.002136,77.806419 
z"/>
<path fill="#dae2f8" opacity="1.000000" stroke="none" 
	d="
M521.318848,452.353394 
	C542.143188,421.638123 555.195740,388.325562 559.807068,351.795441 
	C566.642700,297.645386 556.077393,247.164536 527.694580,200.507935 
	C525.786499,197.371338 525.621277,194.990799 527.643188,191.880905 
	C530.706909,187.168777 533.284546,182.140579 535.940063,177.472672 
	C538.068848,177.273758 538.634216,178.565002 539.364441,179.657547 
	C560.795898,211.722153 574.941711,246.763184 579.964050,284.981506 
	C589.578186,358.142120 572.053467,424.204376 525.144287,481.589905 
	C484.666260,531.107910 432.228088,560.651611 369.225433,570.962158 
	C325.627350,578.097168 282.991730,573.246338 241.462967,558.231567 
	C237.815308,556.912720 236.867447,555.073547 238.101913,551.490356 
	C239.714630,546.809265 240.404724,541.821533 242.851532,536.660034 
	C293.455597,556.312073 344.922607,559.215088 396.872559,543.513855 
	C448.797882,527.820068 490.080566,497.133270 521.318848,452.353394 
z"/>
</svg>